<svg width="20" height="19" viewBox="0 0 20 19" fill="none" xmlns="http://www.w3.org/2000/svg">
<path fill-rule="evenodd" clip-rule="evenodd" d="M11.2281 0.421388C10.877 0.148279 10.4449 0 10.0001 0C9.5553 0 9.12319 0.148279 8.7721 0.421388L0.388104 6.94139C-0.363896 7.52839 0.0501037 8.73339 1.0031 8.73339H2.0001V16.7334C2.0001 17.2638 2.21082 17.7725 2.58589 18.1476C2.96096 18.5227 3.46967 18.7334 4.0001 18.7334H16.0001C16.5305 18.7334 17.0392 18.5227 17.4143 18.1476C17.7894 17.7725 18.0001 17.2638 18.0001 16.7334V8.73339H18.9971C19.9491 8.73339 20.3651 7.52839 19.6121 6.94239L11.2281 0.421388ZM11.0001 16.7334V10.7334C11.0001 10.4682 10.8947 10.2138 10.7072 10.0263C10.5197 9.83874 10.2653 9.73339 10.0001 9.73339C9.73489 9.73339 9.48053 9.83874 9.293 10.0263C9.10546 10.2138 9.0001 10.4682 9.0001 10.7334V16.7334H4.0001V7.74339C4.0001 7.42639 3.8541 7.14339 3.6251 6.95839L10.0001 2.00039L16.3751 6.95839C16.2575 7.05254 16.1627 7.17204 16.0978 7.30797C16.0328 7.4439 15.9994 7.59275 16.0001 7.74339V16.7334H11.0001Z" fill="#00613B"/>
</svg>
