<svg width="23" height="23" viewBox="0 0 23 23" fill="none" xmlns="http://www.w3.org/2000/svg">
<g clip-path="url(#clip0_33_27)">
<path d="M6.33679 12.5H8.83679M6.33679 8.5H12.8368M6.33679 16.5H7.83679M18.1648 2.672C16.9938 1.5 15.1078 1.5 11.3368 1.5H9.33679C5.56579 1.5 3.67979 1.5 2.50879 2.672C1.33779 3.844 1.33679 5.729 1.33679 9.5V13.5C1.33679 17.271 1.33679 19.157 2.50879 20.328C3.68079 21.499 5.56579 21.5 9.33679 21.5H11.3368C15.1078 21.5 16.9938 21.5 18.1648 20.328C19.1088 19.385 19.2918 17.98 19.3278 15.5" stroke="white" stroke-width="1.5" stroke-linecap="round"/>
<path d="M17.5068 7.54005L17.9698 7.07605C18.3384 6.70727 18.8385 6.50003 19.3599 6.49994C19.8814 6.49985 20.3815 6.7069 20.7503 7.07555C21.1191 7.4442 21.3263 7.94425 21.3264 8.4657C21.3265 8.98714 21.1194 9.48727 20.7508 9.85605L20.2878 10.32M17.5068 7.54005C17.5068 7.54005 17.5648 8.52405 18.4338 9.39305C19.3028 10.262 20.2878 10.32 20.2878 10.32M17.5068 7.54005L13.2468 11.8C12.9568 12.088 12.8128 12.233 12.6888 12.392C12.5421 12.58 12.4174 12.782 12.3148 12.998C12.2278 13.18 12.1638 13.373 12.0348 13.76L11.6218 15L11.4878 15.401M20.2878 10.32L16.0278 14.58C15.7378 14.87 15.5938 15.014 15.4348 15.138C15.2468 15.2847 15.0448 15.4094 14.8288 15.512C14.6468 15.599 14.4538 15.663 14.0668 15.792L12.8268 16.205L12.4258 16.3391M11.4878 15.401L11.3548 15.803C11.3238 15.8964 11.3194 15.9964 11.342 16.0921C11.3647 16.1878 11.4135 16.2753 11.483 16.3448C11.5525 16.4143 11.64 16.4631 11.7357 16.4858C11.8314 16.5084 11.9315 16.504 12.0248 16.473L12.4258 16.3391M11.4878 15.401L12.4258 16.3391" stroke="white" stroke-width="1.5"/>
</g>
<defs>
<clipPath id="clip0_33_27">
<rect width="22" height="23" fill="white" transform="translate(0.333374)"/>
</clipPath>
</defs>
</svg>
